{"title":"Shark Tank S07E04 HDTV x264-UAV[rartv]","uid":12589900,"size":275511193,"categoryP":"video","categoryS":"tv_shows","magnet":"?xt=urn:btih:fff1893dc814a751f0ff51fa9de0c531a99045fa&amp;dn=Shark+Tank+S07E04+HDTV+x264-UAV%5Brartv%5D&amp;tr=udp%3A%2F%2Ftracker.leechers-paradise.org%3A6969&amp;tr=udp%3A%2F%2Fzer0day.ch%3A1337&amp;tr=udp%3A%2F%2Fopen.demonii.com%3A1337&amp;tr=udp%3A%2F%2Ftracker.coppersurfer.tk%3A6969&amp;tr=udp%3A%2F%2Fexodus.desync.com%3A6969","seeders":1,"leechers":0,"uploader":"TheRival","files":3,"time":1445085233,"description":"Screens: \nhttp://extraimago.com/image/9vV\r\n\r\nVideo\r\nID                                       : 1\r\nFormat                                   : AVC\r\nFormat/Info                              : Advanced Video Codec\r\nFormat profile                           :   \r\nFormat settings, CABAC                   : Yes\r\nFormat settings, ReFrames                : 5 frames\r\nCodec ID                                 : avc1\r\nCodec ID/Info                            : Advanced Video Coding\r\nDuration                                 : 42mn 18s\r\nBit rate                                 : 727 Kbps\r\nMaximum bit rate                         : 2 926 Kbps\r\nWidth                                    : 720 pixels\r\nHeight                                   : 404 pixels\r\nDisplay aspect ratio                     : 16:9\r\nFrame rate mode                          : Constant\r\nFrame rate                               : 29.970 fps\r\nColor space                              : YUV\r\nChroma subsampling                       : 4:2:0\r\nBit depth                                : 8 bits\r\nScan type                                : Progressive\r\nBits/(Pixel*Frame)                       : 0.083\r\nStream size                              : 220 MiB (84%)\r\nTitle                                    : Video\r\nWriting library                          : x264 core 148 r2638 7599210\r\nEncoding settings                        : cabac=1 / ref=5 / deblock=1:0:0 / analyse=0x3:0x113 / me=umh / subme=8 / psy=1 / psy_rd=1.00:0.00 / mixed_ref=1 / me_range=16 / chroma_me=1 / trellis=1 / 8x8dct=1 / cqm=0 / deadzone=21,11 / fast_pskip=1 / chroma_qp_offset=-2 / threads=12 / lookahead_threads=2 / sliced_threads=0 / nr=0 / decimate=1 / interlaced=0 / bluray_compat=0 / constrained_intra=0 / bframes=3 / b_pyramid=2 / b_adapt=2 / b_bias=0 / direct=3 / weightb=1 / open_gop=0 / weightp=2 / keyint=250 / keyint_min=25 / scenecut=40 / intra_refresh=0 / rc_lookahead=50 / rc=crf / mbtree=1 / crf=21.0 / qcomp=0.60 / qpmin=0 / qpmax=69 / qpstep=4 / ip_ratio=1.40 / aq=1:1.00\r\nEncoded date                             : UTC 2015-10-17 03:13:53\r\nTagged date                              : UTC 2015-10-17 03:27:22\r\nColor range                              : Limited\r\nMatrix coefficients                      : BT.709\r\n\r\nAudio\r\nID                                       : 2\r\nFormat                                   : AAC\r\nFormat/Info                              : Advanced Audio Codec\r\nFormat profile                           : LC\r\nCodec ID                                 : 40\r\nDuration                                 : 42mn 18s\r\nBit rate mode                            : Variable\r\nBit rate                                 : 136 Kbps\r\nMaximum bit rate                         : 179 Kbps\r\nChannel(s)                               : 2 channels\r\nChannel positions                        : Front: L R\r\nSampling rate                            : 48.0 KHz\r\nCompression mode                         : Lossy\r\nStream size                              : 41.2 MiB (16%)\r\nEncoded date                             : UTC 2015-10-17 03:27:21\r\nTagged date                              : UTC 2015-10-17 03:27:22\r\n\r\nText\r\nID                                       : 3\r\nFormat                                   : Timed Text\r\nCodec ID                                 : tx3g\r\nDuration                                 : 41mn 43s\r\nBit rate mode                            : Variable\r\nBit rate                                 : 205 bps\r\nStream size                              : 62.7 KiB (0%)\r\nEncoded date                             : UTC 2015-10-17 03:27:22\r\nTagged date                              : UTC 2015-10-17 03:27:22","torrent":{"xt":"urn:btih:fff1893dc814a751f0ff51fa9de0c531a99045fa","amp;dn":"Shark+Tank+S07E04+HDTV+x264-UAV%5Brartv%5D","amp;tr":["udp%3A%2F%2Ftracker.leechers-paradise.org%3A6969","udp%3A%2F%2Fzer0day.ch%3A1337","udp%3A%2F%2Fopen.demonii.com%3A1337","udp%3A%2F%2Ftracker.coppersurfer.tk%3A6969","udp%3A%2F%2Fexodus.desync.com%3A6969"],"infoHash":"fff1893dc814a751f0ff51fa9de0c531a99045fa","infoHashBuffer":{"type":"Buffer","data":[255,241,137,61,200,20,167,81,240,255,81,250,157,224,197,49,169,144,69,250]},"announce":[],"urlList":[]}}